<svg xmlns="http://www.w3.org/2000/svg" xmlns:xlink="http://www.w3.org/1999/xlink" version="1.1" x="0px" y="0px" viewBox="0 0 1000 1250" enable-background="new 0 0 1000 1000" xml:space="preserve"><path d="M458.09,802.448c-3.455,0-6.259,2.8-6.259,6.261c0,3.453,2.804,6.259,6.259,6.259c3.458,0,6.257-2.806,6.257-6.259  C464.347,805.248,461.548,802.448,458.09,802.448z"/><circle cx="388.746" cy="787.181" r="9.396"/><circle cx="326.609" cy="749.591" r="13.114"/><path d="M275.229,681.396c-9.308,0-16.855,7.548-16.855,16.856c0,9.307,7.548,16.856,16.855,16.856  c9.308,0,16.857-7.55,16.857-16.856C292.086,688.944,284.538,681.396,275.229,681.396z"/><circle cx="237.59" cy="636.141" r="20.598"/><circle cx="216.01" cy="566.82" r="23.734"/><circle cx="211.612" cy="494.343" r="26.517"/><path d="M224.603,451.389c15.732,0,28.485-12.756,28.485-28.488c0-15.732-12.753-28.482-28.485-28.482s-28.481,12.75-28.481,28.482  C196.121,438.632,208.87,451.389,224.603,451.389z"/><circle cx="254.341" cy="356.688" r="29.688"/><circle cx="299.128" cy="299.542" r="30.108"/><path d="M356.207,284.427c16.44,0,29.768-13.331,29.768-29.77s-13.327-29.771-29.768-29.771c-16.441,0-29.768,13.332-29.768,29.771  S339.766,284.427,356.207,284.427z"/><path d="M422.396,253.409c15.801,0,28.608-12.808,28.608-28.605c0-15.803-12.808-28.611-28.608-28.611s-28.608,12.808-28.608,28.611  C393.787,240.602,406.595,253.409,422.396,253.409z"/><path d="M493.794,185.032c-14.727,0-26.669,11.938-26.669,26.664c0,14.732,11.943,26.676,26.669,26.676  c14.733,0,26.67-11.944,26.67-26.676C520.465,196.97,508.527,185.032,493.794,185.032z"/><path d="M566.28,192.063c-13.202,0-23.909,10.708-23.909,23.917c0,13.208,10.707,23.916,23.909,23.916  c13.209,0,23.911-10.708,23.911-23.916C590.191,202.771,579.489,192.063,566.28,192.063z"/><path d="M656.404,237.448c0-11.467-9.297-20.756-20.758-20.756c-11.465,0-20.756,9.289-20.756,20.756s9.291,20.756,20.756,20.756  C647.107,258.204,656.404,248.915,656.404,237.448z"/><circle cx="697.811" cy="274.984" r="17.021"/><path d="M749.234,313.026c-7.319,0-13.264,5.937-13.264,13.256c0,7.319,5.944,13.255,13.264,13.255  c7.317,0,13.262-5.936,13.262-13.255C762.496,318.963,756.552,313.026,749.234,313.026z"/><path d="M786.922,378.862c-5.246,0-9.494,4.254-9.494,9.496c0,5.249,4.248,9.496,9.494,9.496c5.249,0,9.497-4.248,9.497-9.496  C796.419,383.117,792.171,378.862,786.922,378.862z"/><path d="M808.563,451.323c-3.508,0-6.344,2.842-6.344,6.343c0,3.5,2.836,6.336,6.344,6.336c3.505,0,6.341-2.836,6.341-6.336  C814.904,454.165,812.068,451.323,808.563,451.323z"/><circle cx="488.719" cy="333.166" r="8.967"/><circle cx="421.939" cy="355.835" r="14.985"/><path d="M389.942,402.32c0-11.602-9.411-21.016-21.018-21.016c-11.608,0-21.017,9.414-21.017,21.016  c0,11.614,9.409,21.022,21.017,21.022C380.531,423.342,389.942,413.934,389.942,402.32z"/><path d="M311.89,465.585c0,14.32,11.608,25.923,25.922,25.923c14.321,0,25.926-11.603,25.926-25.923  c0-14.314-11.604-25.923-25.926-25.923C323.498,439.662,311.89,451.271,311.89,465.585z"/><circle cx="333.113" cy="535.945" r="29.018"/><path d="M385.892,602.729c0-16.628-13.479-30.105-30.108-30.105c-16.63,0-30.109,13.478-30.109,30.105  c0,16.633,13.479,30.111,30.109,30.111C372.413,632.84,385.892,619.361,385.892,602.729z"/><path d="M402.271,626.65c-16.067,0-29.097,13.026-29.097,29.094c0,16.074,13.03,29.1,29.097,29.1  c16.067,0,29.097-13.025,29.097-29.1C431.368,639.677,418.338,626.65,402.271,626.65z"/><path d="M465.535,660.786c-14.401,0-26.075,11.673-26.075,26.069c0,14.397,11.673,26.069,26.075,26.069  c14.397,0,26.071-11.672,26.071-26.069C491.606,672.459,479.933,660.786,465.535,660.786z"/><path d="M535.895,670.365c-11.706,0-21.194,9.489-21.194,21.191c0,11.708,9.488,21.192,21.194,21.192  c11.701,0,21.198-9.484,21.198-21.192C557.093,679.854,547.596,670.365,535.895,670.365z"/><path d="M602.677,653.75c-8.355,0-15.132,6.777-15.132,15.138s6.776,15.138,15.132,15.138c8.366,0,15.144-6.777,15.144-15.138  S611.043,653.75,602.677,653.75z"/><path d="M655.698,613.33c-5.013,0-9.072,4.06-9.072,9.066c0,5.014,4.06,9.072,9.072,9.072c5.002,0,9.072-4.059,9.072-9.072  C664.771,617.39,660.7,613.33,655.698,613.33z"/><text x="0" y="1015" fill="#000000" font-size="5px" font-weight="bold" font-family="'Helvetica Neue', Helvetica, Arial-Unicode, Arial, Sans-serif">Created by rasendria</text><text x="0" y="1020" fill="#000000" font-size="5px" font-weight="bold" font-family="'Helvetica Neue', Helvetica, Arial-Unicode, Arial, Sans-serif">from the Noun Project</text></svg>